<?xml version="1.0" encoding="UTF-8" standalone="no"?>
<svg
   xmlns:dc="http://purl.org/dc/elements/1.1/"
   xmlns:cc="http://creativecommons.org/ns#"
   xmlns:rdf="http://www.w3.org/1999/02/22-rdf-syntax-ns#"
   xmlns:svg="http://www.w3.org/2000/svg"
   xmlns="http://www.w3.org/2000/svg"
   id="svg8"
   version="1.1"
   viewBox="0 0 7.8438247 26.458334"
   height="100"
   width="29.645952">
  <defs
     id="defs2" />
  <metadata
     id="metadata5">
    <rdf:RDF>
      <cc:Work
         rdf:about="">
        <dc:format>image/svg+xml</dc:format>
        <dc:type
           rdf:resource="http://purl.org/dc/dcmitype/StillImage" />
        <dc:title></dc:title>
      </cc:Work>
    </rdf:RDF>
  </metadata>
  <g
     transform="translate(-0.28069696,-0.29880315)"
     id="layer1">
    <path
       id="path4496"
       d="M 4.9213406,26.730027 C 4.6660286,26.676827 4.4607116,26.564625 4.4055094,26.448244 4.3788474,26.392044 4.3196224,26.10318 4.273902,25.806443 4.228177,25.50972 4.1461966,25.036635 4.0917281,24.755258 c -0.059463,-0.307243 -0.099029,-0.654027 -0.099029,-0.867949 0,-0.252297 -0.029142,-0.465979 -0.099791,-0.731822 -0.184734,-0.695002 -0.50188,-2.00969 -0.50188,-2.080411 0,-0.0386 -0.025186,-0.091 -0.055971,-0.116601 -0.045685,-0.038 -1.6473548,-0.520619 -2.74346137,-0.826903 -0.14688557,-0.041 -0.26843147,-0.100601 -0.29080667,-0.142401 -0.024278,-0.0454 -0.02668,-0.826623 -0.00652,-2.120551 0.02666,-1.710706 0.04155,-2.05775 0.090251,-2.103591 0.032076,-0.0302 0.26809137,-0.092 0.52447657,-0.137001 l 0.46615487,-0.0822 0.4921943,0.0962 c 0.2707067,0.053 0.505158,0.0882 0.5209968,0.0784 0.01584,-0.01 0.0394,-0.0952 0.052337,-0.189602 0.01294,-0.0944 0.060683,-0.255637 0.1060812,-0.358318 0.045399,-0.102601 0.071961,-0.214182 0.059025,-0.247863 -0.01294,-0.0338 0.0141,-0.245782 0.060087,-0.471265 0.082699,-0.405478 0.082765,-0.410538 0.0056,-0.464559 -0.047368,-0.0332 -0.086986,-0.121201 -0.1009463,-0.224462 -0.01264,-0.0934 -0.033554,-1.036246 -0.046485,-2.095191 C 2.511122,10.610243 2.491534,9.1662336 2.480534,8.4602723 2.448536,6.4064623 2.444772,6.5278636 2.550837,6.194 2.626206,5.9567574 2.646672,5.8026358 2.647672,5.4649982 2.649912,5.0918142 2.659892,5.0222734 2.734229,4.9234924 2.817474,4.8128912 2.828982,4.8100911 3.2155622,4.8078911 c 0.5088436,-0.002 0.4826647,0.004 0.5643324,-0.1480016 0.056611,-0.1054011 0.075107,-0.280483 0.096379,-0.9125298 C 3.9046316,2.9047967 4.0483055,1.8393912 4.1996491,1.349412 4.3649869,0.81410613 4.6642115,0.49584873 5.1331005,0.35656726 c 0.5695982,-0.1692018 1.0526853,0.037 1.3359974,0.57014007 C 6.6795685,1.3228117 6.720246,1.5640743 6.720246,2.4162374 c 0,0.6636012 -0.01308,0.8236429 -0.1002791,1.2269472 -0.1088992,0.5036794 -0.1217893,0.6709212 -0.060549,0.7853424 0.054279,0.1014011 0.3843173,0.2043022 0.7586177,0.2364626 0.3384134,0.029 0.505337,0.1076011 0.5655413,0.2658968 0.020166,0.053001 0.066267,0.4085444 0.1024931,0.7901085 0.055767,0.5874263 0.058427,0.7699683 0.01736,1.1910668 -0.042541,0.4361047 -0.039613,0.563526 0.023788,1.0354251 0.057723,0.4296246 0.063439,0.5803662 0.028366,0.747588 -0.03062,0.1460016 -0.03161,0.2758828 -0.00326,0.4286188 0.059959,0.323123 0.01508,0.8716687 -0.091527,1.1195454 -0.1200849,0.279163 -0.332739,0.376304 -0.5094751,0.232763 -0.028108,-0.0228 -0.059895,-0.0328 -0.070633,-0.022 -0.026248,0.0262 0.186296,0.958284 0.3823355,1.676592 0.263567,0.965725 0.2913637,1.13546 0.2165613,1.322402 -0.059187,0.148002 -0.056487,0.219443 0.040582,1.074306 0.057193,0.503625 0.1041492,1.050345 0.1043492,1.214927 0.00102,0.413404 -0.1552257,2.424654 -0.2048466,2.645716 -0.022302,0.0992 -0.065995,0.288738 -0.097113,0.421139 -0.031122,0.132401 -0.057301,0.376044 -0.058179,0.541506 -0.00254,0.474359 -0.1328514,1.244187 -0.4380383,2.58715 -0.3072719,1.352188 -0.351635,1.646131 -0.3914008,2.593555 -0.029716,0.707942 -0.027582,0.715562 0.3111777,1.117326 0.1080912,0.128202 0.1697318,0.245163 0.183574,0.348298 0.02767,0.206362 -0.071801,0.441625 -0.2087094,0.493705 -0.1538957,0.0586 -0.5370344,0.0486 -0.7676421,-0.02 -0.3061461,-0.091 -0.3547808,-0.167202 -0.354913,-0.556246 -9.04e-5,-0.237556 -0.025588,-0.400498 -0.093519,-0.59746 -0.051379,-0.148802 -0.1075392,-0.270663 -0.1248013,-0.270663 -0.037538,0 -0.082165,0.299463 -0.083019,0.557106 -0.00137,0.200682 -0.059377,0.352698 -0.094209,0.244043 -0.0104,-0.0326 -0.028244,-0.287704 -0.039646,-0.567147 -0.01682,-0.412584 -0.039424,-0.555779 -0.1202053,-0.762082 -0.1293433,-0.330363 -0.1608637,-0.493185 -0.1128292,-0.582666 0.021424,-0.04 0.1565557,-0.213896 0.3002927,-0.386658 0.19228,-0.231123 0.2754391,-0.368924 0.3146935,-0.521446 0.073845,-0.286943 0.075267,-1.805887 0.0023,-1.879408 -0.042039,-0.042 -0.1348635,-0.0222 -0.5013916,0.107601 -0.2623874,0.0928 -0.5242397,0.159602 -0.6284642,0.159802 -0.1711458,0.0014 -0.1800199,0.006 -0.2107222,0.141202 -0.01762,0.0772 -0.043516,0.465299 -0.057531,0.862423 l -0.025476,0.721982 0.1296294,0.300823 c 0.071297,0.165602 0.1442535,0.391078 0.1621337,0.501399 0.030852,0.190402 0.4805336,1.388309 0.6173508,1.644612 0.095705,0.179202 0.1171573,0.349578 0.085959,0.682481 -0.01752,0.187002 -0.053783,0.331424 -0.096461,0.384144 -0.080347,0.0992 -0.3338776,0.131002 -0.6006342,0.0756 z M 6.2907893,19.40829 c 0.094299,-0.220762 0.1101672,-0.307943 0.100281,-0.551066 -0.0108,-0.265022 -0.01918,-0.289823 -0.1021771,-0.301703 -0.049733,-0.008 -0.097957,0.012 -0.1071671,0.04 -0.029374,0.093 -0.055701,1.075866 -0.028802,1.075346 0.01422,-4.6e-4 0.076257,-0.118401 0.1378655,-0.262677 z M 3.2863042,15.775709 c -0.033304,-0.0368 -0.1137312,-0.077 -0.1787199,-0.0896 -0.2171921,-0.0414 -0.2377172,-0.0502 -0.2923595,-0.125001 -0.071597,-0.098 -0.18631,-0.053 -0.18631,0.0728 0,0.134202 0.058629,0.170402 0.3810564,0.235503 0.2995101,0.0604 0.3885304,0.0302 0.2763318,-0.0938 z M 3.8211634,9.8743013 c -0.00886,-0.0716 -0.01616,-0.012 -0.01616,0.1304017 0,0.143401 0.00726,0.202076 0.01616,0.130401 0.00888,-0.0716 0.00888,-0.1890017 0,-0.2606967 z m 2.297434,-4.4394035 c 0,-0.1296014 0.1098492,-0.2379825 0.3292812,-0.3248634 0.072599,-0.0288 0.1632537,-0.078801 0.2014431,-0.1114012 0.086377,-0.073401 0.1605917,-0.0218 0.2724511,0.189802 0.041657,0.078801 0.076529,0.1198013 0.077505,0.091201 C 7.0017378,5.2076352 6.8909406,4.9982732 6.7614662,4.8303714 6.7019252,4.7531704 6.5510314,4.515114 6.4261444,4.3013517 6.3012591,4.0876094 6.1809714,3.9015274 6.1588392,3.8878472 c -0.067661,-0.0418 -0.045559,0.2074023 0.039986,0.4507849 0.044125,0.1256013 0.080221,0.3291035 0.080221,0.4523788 0,0.187402 -0.02032,0.2517627 -0.1238053,0.3924642 C 6.0107374,5.3798773 5.9454535,5.3937974 5.88132,5.2414761 5.855768,5.1808751 5.7345765,5.0590738 5.6120052,4.9710329 5.3435079,4.7780308 4.8622947,4.1625102 4.7713516,3.8956073 4.6982688,3.681131 4.6634424,3.6658508 4.570619,3.8076064 4.4367756,4.0118886 4.4634999,4.8120512 4.616499,5.1814151 c 0.073625,0.1778019 0.2247988,0.1746019 0.4993184,-0.01 0.1147392,-0.077201 0.226579,-0.1404015 0.2485328,-0.1404015 0.053505,0 0.2492765,0.1386015 0.4928385,0.3488838 0.1099272,0.095001 0.2137113,0.1726018 0.2306381,0.1726018 0.01692,0 0.030768,-0.052801 0.030768,-0.1174013 z"
       style="fill:#000000;stroke-width:0.04011129" />
  </g>
</svg>
