<?xml version="1.0" encoding="UTF-8" standalone="no"?>
<svg
   xmlns:dc="http://purl.org/dc/elements/1.1/"
   xmlns:cc="http://creativecommons.org/ns#"
   xmlns:rdf="http://www.w3.org/1999/02/22-rdf-syntax-ns#"
   xmlns:svg="http://www.w3.org/2000/svg"
   xmlns="http://www.w3.org/2000/svg"
   id="svg8"
   version="1.1"
   viewBox="0 0 280.26831 186.79423"
   height="186.79422"
   width="280.26831">
  <defs
     id="defs2" />
  <metadata
     id="metadata5">
    <rdf:RDF>
      <cc:Work
         rdf:about="">
        <dc:format>image/svg+xml</dc:format>
        <dc:type
           rdf:resource="http://purl.org/dc/dcmitype/StillImage" />
        <dc:title></dc:title>
      </cc:Work>
    </rdf:RDF>
  </metadata>
  <g
     transform="translate(-0.72298272,0.16317695)"
     id="layer1">
    <g
       style="fill:#00804f;fill-opacity:1"
       transform="matrix(0.23214287,0,0,0.20758929,129.14286,2.2339388)"
       id="g50">
      <path
         style="fill:#00804f;fill-opacity:1"
         d="m 160,252.90323 h 96 c -35.375,0 -64,-28.656 -64,-64 v -32 c 64,0 64,-64.000006 64,-64.000006 0,0 0,64.000006 64,64.000006 v 32 c 0,35.344 -28.688,64 -64,64 h 96 c 17.688,0 32,-14.328 32,-32 -17.688,0 -32,-14.328 -32,-32 v -64 c 0,-53.016006 -43,-96.000005 -96,-96.000005 -53.063,0 -96,42.983999 -96,96.000005 v 64 c 0,17.672 -14.344,32 -32,32 0,17.672 14.313,32 32,32 z"
         id="path36" />
      <path
         style="fill:#00804f;fill-opacity:1"
         d="m 352,288 h -64 l 32,32 -64,96 -64,-96 32,-32 h -64 c -35.375,0 -64,28.656 -64,64 v 64 64 c 0,17.688 14.313,32 32,32 h 256 c 17.688,0 32,-14.312 32,-32 v -64 -64 c 0,-35.344 -28.688,-64 -64,-64 z"
         id="path38" />
    </g>
    <path
       d="m 63.044668,3.0686055 c -12.02631,0.98767 -19.57214,8.3835095 -23.71874,18.7499995 l -19.31251,49.21874 15.56251,-1.03125 16.96874,-43.12499 c 1.55499,-3.62827 5.70551,-7.16916 10.5,-7.6875 44.767012,-5.89367 104.596472,-6.21939 155.718712,0 4.79448,0.51834 8.85126,4.05923 10.40625,7.6875 l 16.96874,43.12499 15.5625,1.03125 -19.3125,-49.21874 C 238.24174,11.452115 230.66912,4.2693355 218.76338,3.0686055 c -44.85164,-4.52341 -105.92629,-4.089211 -155.718712,0 z M 140.85715,66.068595 c -35.39855,0.16437 -70.718522,3.32294 -105.843722,7.59375 -14.66472,2.05228 -24.29215,5.23537 -29.5312496,13.78124 -10.19916,16.636705 -4.29703,43.218735 20.5312496,43.218735 h 101.343722 27 101.34372 c 24.82826,0 30.7304,-26.58203 20.53124,-43.218735 -5.2391,-8.54587 -14.86652,-10.60396 -29.53124,-12.65625 -35.1515,-3.84883 -70.43662,-8.88316 -105.84372,-8.71874 z M 32.200928,85.099835 c 10.15941,0 18.37499,8.2156 18.37499,18.374995 0,10.15937 -8.21558,18.46877 -18.37499,18.46874 -10.15939,0 -18.46875,-8.30937 -18.46876,-18.46874 0,-10.159385 8.30937,-18.375045 18.46876,-18.374995 z m 217.406192,0 c 10.15938,-5e-5 18.375,8.21561 18.375,18.374995 -3e-5,10.15937 -8.21562,18.46874 -18.375,18.46874 -10.15941,3e-5 -18.46874,-8.30937 -18.46874,-18.46874 0,-10.159395 8.30933,-18.374995 18.46874,-18.374995 z M 5.4821784,134.88107 c -2.58435,0 -4.6875,2.0094 -4.6875,4.59375 v 6.1875 c 0,2.58435 2.10315,4.78124 4.6875,4.78124 h 8.9999896 v 28.96875 c 0,3.96486 3.25384,7.21874 7.21875,7.21874 h 27.46875 c 3.96491,0 7.21875,-3.25382 7.21875,-7.21874 v -28.96875 h 59.624992 49.78123 59.62499 v 28.96875 c 0,3.96492 3.16011,7.21874 7.125,7.21874 h 27.46874 c 3.96492,0 7.21875,-3.25388 7.21875,-7.21874 v -28.96875 h 8.99999 c 2.58432,0 4.6875,-2.19689 4.6875,-4.78124 v -6.1875 c 0,-2.58435 -2.10315,-4.59375 -4.6875,-4.59375 H 156.7009 125.0134 Z"
       id="path2001"
       style="fill:#000000;fill-opacity:1;fill-rule:evenodd;stroke:none" />
  </g>
</svg>
